<?xml version="1.0" encoding="iso-8859-1"?>
<!-- Generator: Adobe Illustrator 16.0.0, SVG Export Plug-In . SVG Version: 6.00 Build 0)  -->
<!DOCTYPE svg PUBLIC "-//W3C//DTD SVG 1.1//EN" "http://www.w3.org/Graphics/SVG/1.1/DTD/svg11.dtd">
<svg version="1.1" id="Capa_1" xmlns="http://www.w3.org/2000/svg" xmlns:xlink="http://www.w3.org/1999/xlink" x="0px" y="0px"
	 width="488.839px" height="488.839px" viewBox="0 0 488.839 488.839" style="enable-background:new 0 0 488.839 488.839;"
	 xml:space="preserve">
<g>
	<g id="_x31_4_26_">
		<g>
			<path d="M264.32,39.487c5.529-7.328,4.64-22.871,3.853-36.582c-0.03-0.591-0.063-1.169-0.096-1.756
				C260.327,0.409,252.482,0,244.542,0c-30.425,0-59.537,5.605-86.406,15.766c19.167,9.211,48.836,25.065,81.814,48.49
				C251.202,54.573,259.688,45.634,264.32,39.487z" fill="white"/>
			<path d="M388.163,178.955c-12.047,1.361-22.207,3.338-30.896,6.111c41.537,72.522,57.732,164.145,61.695,230.522
				c41.15-41.928,67.283-98.609,69.754-161.393C460.362,219.343,422.8,175.026,388.163,178.955z" fill="white"/>
			<path d="M141.232,116.356c29.185-6.073,56.604-20.762,78.466-36.267c-45.608-31.412-83.648-47.714-91.215-50.817
				C81.166,54.851,43.302,95.606,21.274,144.987c28.632-11.408,59.641-17.212,90.098-22.867
				C121.225,120.29,131.41,118.399,141.232,116.356z" fill="white"/>
			<path d="M310.171,123.463c2.605,2.618,5.203,5.281,7.783,7.994c9.521,9.995,18.16,20.927,26.082,32.493
				c11.537-4.356,25.119-7.445,41.377-9.283c38.307-4.333,72.369,26.012,101.604,59.42c-6.268-50.645-27.989-96.482-60.354-132.631
				c-17.666,2.129-37.361,5.736-57.435,11.726C356.06,97.115,335.089,107.801,310.171,123.463z" fill="white"/>
			<path d="M278.011,249.688c10.025-33.955,21.637-58.432,44.135-74.32c-6.752-9.693-14.018-18.79-21.889-27.054
				c-3.641-3.824-7.323-7.517-11.021-11.145c-90.263,61.439-213.906,174.3-225.149,272.086
				c37.53,41.062,88.892,69.222,146.712,77.211c21.053-41.915,40.868-127.124,52.646-177.801
				C269.104,284.324,273.988,263.307,278.011,249.688z" fill="white"/>
			<path d="M175.668,195.843c31.472-29.001,64.708-55.007,95.107-75.908c-10.133-8.965-20.297-17.229-30.275-24.808
				c-25.249,18.98-58.307,37.674-94.291,45.158c-10.077,2.097-20.396,4.014-30.372,5.866
				c-38.438,7.138-75.336,14.051-106.366,31.364c-6.043,21.271-9.348,43.697-9.348,66.905c0,51.917,16.238,100.02,43.839,139.604
				C61.843,313.227,123.175,244.214,175.668,195.843z" fill="white"/>
			<path d="M291.829,105.975c29.078-18.538,54.147-31.356,70.412-36.211c14.606-4.362,28.934-7.539,42.502-9.856
				c-31.353-27.245-69.678-46.663-111.986-55.127c0.938,17.07,1.347,35.811-8.922,49.427c-4.879,6.466-13.133,15.334-23.873,24.955
				C270.48,87.35,281.169,96.278,291.829,105.975z" fill="white"/>
			<path d="M301.45,256.609c-3.816,12.928-8.63,33.625-14.199,57.588c-16.444,70.755-32.179,134.067-50.555,174.442
				c2.609,0.083,5.217,0.199,7.846,0.199c56.963,0,109.328-19.539,150.885-52.206c-1.641-69.461-18.293-167.71-60.238-240.643
				C318.921,208.08,310.165,227.101,301.45,256.609z" fill="white"/>
		</g>
	</g>
</g>
<g>
</g>
<g>
</g>
<g>
</g>
<g>
</g>
<g>
</g>
<g>
</g>
<g>
</g>
<g>
</g>
<g>
</g>
<g>
</g>
<g>
</g>
<g>
</g>
<g>
</g>
<g>
</g>
<g>
</g>
</svg>
