<?xml version="1.0" encoding="utf-8"?>
<!-- Generator: Adobe Illustrator 22.0.0, SVG Export Plug-In . SVG Version: 6.00 Build 0)  -->
<svg version="1.1" id="Capa_1" xmlns="http://www.w3.org/2000/svg" xmlns:xlink="http://www.w3.org/1999/xlink" x="0px" y="0px"
	 viewBox="0 0 265.1 425.4" style="enable-background:new 0 0 265.1 425.4;" xml:space="preserve">
<style type="text/css">
	.st0{fill:#966834;}
	.st1{fill:#BF8346;}
	.st2{fill:#B5753E;}
	.st3{fill:#CA8C50;}
	.st4{fill:#BE7343;}
	.st5{fill:#C37E44;}
	.st6{opacity:0.3;fill:#FFFFFF;}
	.st7{fill:#FFFFFF;}
</style>
<rect y="0" class="st0" width="265.1" height="425.4"/>
<g>
	<g>
		<rect x="8.8" y="4.5" class="st1" width="249.1" height="416.5"/>
		<rect x="249.4" y="4.5" class="st2" width="8.5" height="75.6"/>
		<rect x="249.4" y="154.5" class="st2" width="8.5" height="75.6"/>
		<rect x="249.4" y="79.8" class="st3" width="8.5" height="75.6"/>
		<rect x="232.8" y="4.5" class="st2" width="8.5" height="35"/>
		<rect x="240.9" y="22.7" class="st4" width="8.5" height="75.6"/>
		<rect x="240.9" y="173.3" class="st4" width="8.5" height="75.6"/>
		<rect x="240.9" y="97.4" class="st5" width="8.5" height="75.6"/>
		<rect x="232.8" y="39.9" class="st5" width="8.5" height="75.6"/>
		<rect x="232.8" y="115" class="st4" width="8.5" height="75.6"/>
		<rect x="249.4" y="230" class="st2" width="8.5" height="75.6"/>
		<rect x="249.4" y="380.1" class="st2" width="8.5" height="40.9"/>
		<rect x="249.4" y="305.3" class="st3" width="8.5" height="75.6"/>
		<rect x="232.8" y="190.8" class="st5" width="8.5" height="74.2"/>
		<rect x="240.9" y="248.2" class="st4" width="8.5" height="75.6"/>
		<rect x="240.9" y="398.9" class="st4" width="8.5" height="22.1"/>
		<rect x="240.9" y="322.9" class="st5" width="8.5" height="75.6"/>
		<rect x="232.8" y="265.5" class="st2" width="8.5" height="75.6"/>
		<rect x="232.8" y="340.5" class="st4" width="8.5" height="75.6"/>
		<rect x="208.1" y="345.3" class="st2" width="8.5" height="75.6"/>
		<rect x="208.1" y="195.3" class="st2" width="8.5" height="75.6"/>
		<rect x="208.1" y="270" class="st3" width="8.5" height="75.6"/>
		<rect x="224.7" y="386" class="st2" width="8.5" height="35"/>
		<rect x="216.7" y="327.1" class="st4" width="8.5" height="75.6"/>
		<rect x="216.7" y="176.5" class="st4" width="8.5" height="75.6"/>
		<rect x="216.7" y="252.4" class="st5" width="8.5" height="75.6"/>
		<rect x="224.7" y="309.9" class="st5" width="8.5" height="75.6"/>
		<rect x="224.7" y="234.8" class="st4" width="8.5" height="75.6"/>
		<rect x="208.1" y="119.8" class="st5" width="8.5" height="75.6"/>
		<rect x="208.1" y="4.5" class="st2" width="8.5" height="40.9"/>
		<rect x="208.1" y="44.5" class="st3" width="8.5" height="75.6"/>
		<rect x="224.7" y="160.4" class="st3" width="8.5" height="74.2"/>
		<rect x="216.7" y="101.6" class="st4" width="8.5" height="75.6"/>
		<rect x="216.7" y="26.9" class="st5" width="8.5" height="75.6"/>
		<rect x="224.7" y="84.3" class="st2" width="8.5" height="75.6"/>
		<rect x="224.7" y="9.3" class="st4" width="8.5" height="75.6"/>
		<rect x="199.2" y="4.5" class="st2" width="8.5" height="75.6"/>
		<rect x="199.2" y="154.5" class="st2" width="8.5" height="75.6"/>
		<rect x="199.2" y="79.8" class="st3" width="8.5" height="75.6"/>
		<rect x="182.6" y="4.5" class="st2" width="8.5" height="35"/>
		<rect x="190.6" y="22.7" class="st4" width="8.5" height="75.6"/>
		<rect x="190.6" y="173.3" class="st4" width="8.5" height="75.6"/>
		<rect x="190.6" y="97.4" class="st5" width="8.5" height="75.6"/>
		<rect x="182.6" y="39.9" class="st5" width="8.5" height="75.6"/>
		<rect x="182.6" y="115" class="st4" width="8.5" height="75.6"/>
		<rect x="199.2" y="230" class="st2" width="8.5" height="75.6"/>
		<rect x="199.2" y="380.1" class="st2" width="8.5" height="40.9"/>
		<rect x="199.2" y="305.3" class="st3" width="8.5" height="75.6"/>
		<rect x="182.6" y="190.8" class="st5" width="8.5" height="74.2"/>
		<rect x="190.6" y="248.2" class="st4" width="8.5" height="75.6"/>
		<rect x="190.6" y="398.9" class="st4" width="8.5" height="22.1"/>
		<rect x="190.6" y="322.9" class="st5" width="8.5" height="75.6"/>
		<rect x="182.6" y="265.5" class="st2" width="8.5" height="75.6"/>
		<rect x="182.6" y="340.5" class="st4" width="8.5" height="75.6"/>
		<rect x="157.9" y="345.3" class="st2" width="8.5" height="75.6"/>
		<rect x="157.9" y="195.3" class="st2" width="8.5" height="75.6"/>
		<rect x="157.9" y="270" class="st3" width="8.5" height="75.6"/>
		<rect x="174.5" y="386" class="st2" width="8.5" height="35"/>
		<rect x="166.4" y="327.1" class="st4" width="8.5" height="75.6"/>
		<rect x="166.4" y="176.5" class="st4" width="8.5" height="75.6"/>
		<rect x="166.4" y="252.4" class="st5" width="8.5" height="75.6"/>
		<rect x="174.5" y="309.9" class="st5" width="8.5" height="75.6"/>
		<rect x="174.5" y="234.8" class="st4" width="8.5" height="75.6"/>
		<rect x="157.9" y="119.8" class="st5" width="8.5" height="75.6"/>
		<rect x="157.9" y="4.5" class="st2" width="8.5" height="40.9"/>
		<rect x="157.9" y="44.5" class="st3" width="8.5" height="75.6"/>
		<rect x="174.5" y="160.4" class="st3" width="8.5" height="74.2"/>
		<rect x="166.4" y="101.6" class="st4" width="8.5" height="75.6"/>
		<rect x="166.4" y="26.9" class="st5" width="8.5" height="75.6"/>
		<rect x="174.5" y="84.3" class="st2" width="8.5" height="75.6"/>
		<rect x="174.5" y="9.3" class="st4" width="8.5" height="75.6"/>
		<rect x="148.9" y="4.5" class="st2" width="8.5" height="75.6"/>
		<rect x="148.9" y="154.5" class="st2" width="8.5" height="75.6"/>
		<rect x="148.9" y="79.8" class="st3" width="8.5" height="75.6"/>
		<rect x="132.3" y="4.5" class="st2" width="8.5" height="35"/>
		<rect x="140.4" y="22.7" class="st4" width="8.5" height="75.6"/>
		<rect x="140.4" y="173.3" class="st4" width="8.5" height="75.6"/>
		<rect x="140.4" y="97.4" class="st5" width="8.5" height="75.6"/>
		<rect x="132.3" y="39.9" class="st5" width="8.5" height="75.6"/>
		<rect x="132.3" y="115" class="st4" width="8.5" height="75.6"/>
		<rect x="148.9" y="230" class="st2" width="8.5" height="75.6"/>
		<rect x="148.9" y="380.1" class="st2" width="8.5" height="40.9"/>
		<rect x="148.9" y="305.3" class="st3" width="8.5" height="75.6"/>
		<rect x="132.3" y="190.8" class="st5" width="8.5" height="74.2"/>
		<rect x="140.4" y="248.2" class="st4" width="8.5" height="75.6"/>
		<rect x="140.4" y="398.9" class="st4" width="8.5" height="22.1"/>
		<rect x="140.4" y="322.9" class="st5" width="8.5" height="75.6"/>
		<rect x="132.3" y="265.5" class="st2" width="8.5" height="75.6"/>
		<rect x="132.3" y="340.5" class="st4" width="8.5" height="75.6"/>
		<rect x="107.7" y="345.3" class="st2" width="8.5" height="75.6"/>
		<rect x="107.7" y="195.3" class="st2" width="8.5" height="75.6"/>
		<rect x="107.7" y="270" class="st3" width="8.5" height="75.6"/>
		<rect x="124.3" y="386" class="st2" width="8.5" height="35"/>
		<rect x="116.2" y="327.1" class="st4" width="8.5" height="75.6"/>
		<rect x="116.2" y="176.5" class="st4" width="8.5" height="75.6"/>
		<rect x="116.2" y="252.4" class="st5" width="8.5" height="75.6"/>
		<rect x="124.3" y="309.9" class="st5" width="8.5" height="75.6"/>
		<rect x="124.3" y="234.8" class="st4" width="8.5" height="75.6"/>
		<rect x="107.7" y="119.8" class="st5" width="8.5" height="75.6"/>
		<rect x="107.7" y="4.5" class="st2" width="8.5" height="40.9"/>
		<rect x="107.7" y="44.5" class="st3" width="8.5" height="75.6"/>
		<rect x="124.3" y="160.4" class="st3" width="8.5" height="74.2"/>
		<rect x="116.2" y="101.6" class="st4" width="8.5" height="75.6"/>
		<rect x="116.2" y="26.9" class="st5" width="8.5" height="75.6"/>
		<rect x="124.3" y="84.3" class="st2" width="8.5" height="75.6"/>
		<rect x="124.3" y="9.3" class="st4" width="8.5" height="75.6"/>
		<rect x="98.7" y="4.5" class="st2" width="8.5" height="75.6"/>
		<rect x="98.7" y="154.5" class="st2" width="8.5" height="75.6"/>
		<rect x="98.7" y="79.8" class="st3" width="8.5" height="75.6"/>
		<rect x="82.1" y="4.5" class="st2" width="8.5" height="35"/>
		<rect x="90.2" y="22.7" class="st4" width="8.5" height="75.6"/>
		<rect x="90.2" y="173.3" class="st4" width="8.5" height="75.6"/>
		<rect x="90.2" y="97.4" class="st5" width="8.5" height="75.6"/>
		<rect x="82.1" y="39.9" class="st5" width="8.5" height="75.6"/>
		<rect x="82.1" y="115" class="st4" width="8.5" height="75.6"/>
		<rect x="98.7" y="230" class="st2" width="8.5" height="75.6"/>
		<rect x="98.7" y="380.1" class="st2" width="8.5" height="40.9"/>
		<rect x="98.7" y="305.3" class="st3" width="8.5" height="75.6"/>
		<rect x="82.1" y="190.8" class="st5" width="8.5" height="74.2"/>
		<rect x="90.2" y="248.2" class="st4" width="8.5" height="75.6"/>
		<rect x="90.2" y="398.9" class="st4" width="8.5" height="22.1"/>
		<rect x="90.2" y="322.9" class="st5" width="8.5" height="75.6"/>
		<rect x="82.1" y="265.5" class="st2" width="8.5" height="75.6"/>
		<rect x="82.1" y="340.5" class="st4" width="8.5" height="75.6"/>
		<rect x="57.4" y="345.3" class="st2" width="8.5" height="75.6"/>
		<rect x="57.4" y="195.3" class="st2" width="8.5" height="75.6"/>
		<rect x="57.4" y="270" class="st3" width="8.5" height="75.6"/>
		<rect x="74" y="386" class="st2" width="8.5" height="35"/>
		<rect x="65.9" y="327.1" class="st4" width="8.5" height="75.6"/>
		<rect x="65.9" y="176.5" class="st4" width="8.5" height="75.6"/>
		<rect x="65.9" y="252.4" class="st5" width="8.5" height="75.6"/>
		<rect x="74" y="309.9" class="st5" width="8.5" height="75.6"/>
		<rect x="74" y="234.8" class="st4" width="8.5" height="75.6"/>
		<rect x="57.4" y="119.8" class="st5" width="8.5" height="75.6"/>
		<rect x="57.4" y="4.5" class="st2" width="8.5" height="40.9"/>
		<rect x="57.4" y="44.5" class="st3" width="8.5" height="75.6"/>
		<rect x="74" y="160.4" class="st3" width="8.5" height="74.2"/>
		<rect x="65.9" y="101.6" class="st4" width="8.5" height="75.6"/>
		<rect x="65.9" y="26.9" class="st5" width="8.5" height="75.6"/>
		<rect x="74" y="84.3" class="st2" width="8.5" height="75.6"/>
		<rect x="74" y="9.3" class="st4" width="8.5" height="75.6"/>
		<rect x="48.4" y="4.5" class="st2" width="8.5" height="75.6"/>
		<rect x="48.4" y="154.5" class="st2" width="8.5" height="75.6"/>
		<rect x="48.4" y="79.8" class="st3" width="8.5" height="75.6"/>
		<rect x="31.8" y="4.5" class="st2" width="8.5" height="35"/>
		<rect x="39.9" y="22.7" class="st4" width="8.5" height="75.6"/>
		<rect x="39.9" y="173.3" class="st4" width="8.5" height="75.6"/>
		<rect x="39.9" y="97.4" class="st5" width="8.5" height="75.6"/>
		<rect x="31.8" y="39.9" class="st5" width="8.5" height="75.6"/>
		<rect x="31.8" y="115" class="st4" width="8.5" height="75.6"/>
		<rect x="48.4" y="230" class="st2" width="8.5" height="75.6"/>
		<rect x="48.4" y="380.1" class="st2" width="8.5" height="40.9"/>
		<rect x="48.4" y="305.3" class="st3" width="8.5" height="75.6"/>
		<rect x="31.8" y="190.8" class="st5" width="8.5" height="74.2"/>
		<rect x="39.9" y="248.2" class="st4" width="8.5" height="75.6"/>
		<rect x="39.9" y="398.9" class="st4" width="8.5" height="22.1"/>
		<rect x="39.9" y="322.9" class="st5" width="8.5" height="75.6"/>
		<rect x="31.8" y="265.5" class="st2" width="8.5" height="75.6"/>
		<rect x="31.8" y="340.5" class="st4" width="8.5" height="75.6"/>
		<rect x="7.2" y="345.3" class="st2" width="8.5" height="75.6"/>
		<rect x="7.2" y="195.3" class="st2" width="8.5" height="75.6"/>
		<rect x="7.2" y="270" class="st3" width="8.5" height="75.6"/>
		<rect x="23.8" y="386" class="st2" width="8.5" height="35"/>
		<rect x="15.7" y="327.1" class="st4" width="8.5" height="75.6"/>
		<rect x="15.7" y="176.5" class="st4" width="8.5" height="75.6"/>
		<rect x="15.7" y="252.4" class="st5" width="8.5" height="75.6"/>
		<rect x="23.8" y="309.9" class="st5" width="8.5" height="75.6"/>
		<rect x="23.8" y="234.8" class="st4" width="8.5" height="75.6"/>
		<rect x="7.2" y="119.8" class="st5" width="8.5" height="75.6"/>
		<rect x="7.2" y="4.5" class="st2" width="8.5" height="40.9"/>
		<rect x="7.2" y="44.5" class="st3" width="8.5" height="75.6"/>
		<rect x="23.8" y="160.4" class="st3" width="8.5" height="74.2"/>
		<rect x="15.7" y="101.6" class="st4" width="8.5" height="75.6"/>
		<rect x="15.7" y="26.9" class="st5" width="8.5" height="75.6"/>
		<rect x="23.8" y="84.3" class="st2" width="8.5" height="75.6"/>
		<rect x="23.8" y="9.3" class="st4" width="8.5" height="75.6"/>
	</g>
	<path class="st6" d="M241.9,18.5h-81v99.1h-56.5V18.5H23.2v388.4h218.6V18.5z M104.3,406.8v-99.1h56.5v99.1H104.3z"/>
	<g>
		<path class="st7" d="M242.8,17.6h-81h-58.3H22.4v390.2h220.4V17.6z M159.9,308.8c0,0.7,0,1.4-0.1,2.1l0.1,0v4.4l-0.7-0.2
			c-0.3,1.4-0.8,2.8-1.3,4.1l1.7,0.7c0.1-0.4,0.3-0.7,0.4-1.1v87h-54.7v-87c0.1,0.4,0.3,0.7,0.4,1.1l1.7-0.7c-0.5-1.3-1-2.7-1.3-4.1
			l-0.7,0.2v-4.5l0.1,0c-0.1-0.7-0.1-1.4-0.1-2.1c0-0.1,0-0.2,0-0.3h54.7C159.9,308.6,159.9,308.7,159.9,308.8z M105.3,306.7
			c0.9-12.3,10.1-22.4,21.9-24.8c1.8-0.1,3.5-0.2,5.3-0.2c1.8,0,3.6,0.1,5.3,0.2c11.9,2.4,21,12.4,21.9,24.8H105.3z M103.5,306.7
			L103.5,306.7l-0.1,7.5h-3.8v1.8h3.8v11h-3.8v1.8h3.8v11h-3.8v1.8h3.8v10.1h-3.8v3.6h3.8V406H56.9v-48.6c0-37.1,26.8-68,62.1-74.4
			C110.3,287.6,104.2,296.4,103.5,306.7z M161.7,355.3h3.4v-3.6h-3.4v-10.1h3.4v-1.8h-3.4v-11h3.4v-1.8h-3.4v-11h3.4v-1.8h-3.4v-7.5
			h-0.1c-0.7-10.3-6.8-19.2-15.5-23.7c35.3,6.4,62.1,37.3,62.1,74.4V406h-46.5V355.3z M82.9,211.8c0.5-26.9,22.6-48.7,49.6-48.7
			c27.1,0,49.1,21.8,49.6,48.7H82.9z M182.2,213.7c-0.5,26.9-22.6,48.7-49.6,48.7c-27.1,0-49.1-21.8-49.6-48.7H182.2z M208.2,19.4
			v48.5c0,37.1-26.8,68-62.1,74.4c8.7-4.6,14.8-13.4,15.5-23.7h0.1V111h3.4v-1.8h-3.4v-11h3.4v-1.8h-3.4v-11h3.4v-1.8h-3.4V73.5h3.4
			V70h-3.4V19.4H208.2z M105.2,116.5c0-0.7,0-1.4,0.1-2.1l-0.1,0v-4.5l0.7,0.2c0.3-1.4,0.8-2.8,1.3-4.1l-1.7-0.7
			c-0.2,0.4-0.3,0.7-0.4,1.1V19.4h54.7v87.1c-0.1-0.4-0.2-0.7-0.4-1.1l-1.7,0.7c0.5,1.3,1,2.7,1.3,4.1l0.7-0.2v4.4l-0.1,0
			c0.1,0.7,0.1,1.4,0.1,2.1c0,0.1,0,0.2,0,0.3h-54.7C105.2,116.7,105.2,116.6,105.2,116.5z M159.8,118.6
			c-0.9,12.3-10.1,22.4-21.9,24.8c-1.8,0.1-3.5,0.2-5.3,0.2c-1.8,0-3.6-0.1-5.3-0.2c-11.9-2.4-21-12.4-21.9-24.8H159.8z M103.4,70
			h-3.8v3.6h3.8v10.1h-3.8v1.8h3.8v11h-3.8v1.8h3.8v11h-3.8v1.8h3.8v7.5h0.1c0.7,10.3,6.8,19.2,15.5,23.7
			c-35.3-6.4-62.1-37.3-62.1-74.4V19.4h46.5V70z M55.1,19.4v48.5c0,40.8,31.8,74.3,71.9,77.2c1.8,0.3,3.7,0.5,5.6,0.5
			c1.9,0,3.8-0.2,5.6-0.5c40.1-2.9,71.9-36.4,71.9-77.2V19.4h31v192.4h-57c-0.5-27.9-23.4-50.5-51.4-50.5c-28,0-50.9,22.6-51.4,50.5
			h-57V19.4H55.1z M24.1,213.7h57c0.5,27.9,23.4,50.5,51.4,50.5c28,0,50.9-22.6,51.4-50.5h57V406h-31v-48.6
			c0-40.8-31.8-74.3-71.9-77.2c-1.8-0.3-3.7-0.5-5.6-0.5c-1.9,0-3.8,0.2-5.6,0.5c-40.1,2.9-71.9,36.4-71.9,77.2V406h-31V213.7z"/>
		<path class="st7" d="M147.8,333.7c1.3-0.8,2.5-1.7,3.7-2.7l-1.2-1.4c-1.1,0.9-2.3,1.8-3.5,2.5L147.8,333.7z"/>
		<path class="st7" d="M114.8,329.6l-1.2,1.4c1.2,1,2.4,1.9,3.7,2.7l0.9-1.5C117,331.4,115.9,330.5,114.8,329.6z"/>
		<path class="st7" d="M139.4,337.2c1.5-0.4,2.9-0.8,4.4-1.4l-0.7-1.7c-1.3,0.6-2.7,1-4.1,1.3L139.4,337.2z"/>
		<path class="st7" d="M122.1,334.1l-0.7,1.7c1.4,0.6,2.9,1.1,4.4,1.4l0.4-1.7C124.8,335.1,123.4,334.6,122.1,334.1z"/>
		<path class="st7" d="M132.6,336.2c-0.7,0-1.4,0-2.1-0.1l-0.1,1.8c0.7,0.1,1.5,0.1,2.3,0.1c0.8,0,1.5,0,2.3-0.1l-0.1-1.8
			C134,336.1,133.3,336.2,132.6,336.2z"/>
		<path class="st7" d="M154.8,327.7c1-1.2,1.9-2.4,2.7-3.7l-1.5-0.9c-0.7,1.2-1.6,2.4-2.5,3.5L154.8,327.7z"/>
		<path class="st7" d="M109.2,323.1l-1.5,0.9c0.8,1.3,1.7,2.5,2.7,3.7l1.4-1.2C110.8,325.5,110,324.3,109.2,323.1z"/>
		<path class="st7" d="M117.3,91.6c-1.3,0.8-2.5,1.7-3.7,2.7l1.2,1.4c1.1-0.9,2.3-1.8,3.5-2.5L117.3,91.6z"/>
		<path class="st7" d="M139.4,88.1l-0.4,1.7c1.4,0.3,2.8,0.8,4.1,1.3l0.7-1.7C142.3,89,140.9,88.5,139.4,88.1z"/>
		<path class="st7" d="M125.8,88.1c-1.5,0.4-3,0.8-4.4,1.4l0.7,1.7c1.3-0.5,2.7-1,4.1-1.3L125.8,88.1z"/>
		<path class="st7" d="M110.4,97.6c-1,1.2-1.9,2.4-2.7,3.7l1.5,0.9c0.8-1.2,1.6-2.4,2.5-3.5L110.4,97.6z"/>
		<path class="st7" d="M154.8,97.6l-1.4,1.2c0.9,1.1,1.8,2.3,2.5,3.5l1.5-0.9C156.6,100,155.7,98.8,154.8,97.6z"/>
		<path class="st7" d="M132.6,89.1c0.7,0,1.5,0,2.2,0.1l0.1-1.8c-0.8-0.1-1.5-0.1-2.3-0.1c-0.8,0-1.5,0-2.3,0.1l0.1,1.8
			C131.1,89.2,131.8,89.1,132.6,89.1z"/>
		<path class="st7" d="M147.8,91.7l-0.9,1.5c1.2,0.8,2.4,1.6,3.5,2.5l1.2-1.4C150.4,93.4,149.1,92.5,147.8,91.7z"/>
	</g>
</g>
</svg>
