<?xml version="1.0" encoding="utf-8"?>
<!-- Generator: Adobe Illustrator 22.0.0, SVG Export Plug-In . SVG Version: 6.00 Build 0)  -->
<svg version="1.1" id="Capa_1" xmlns="http://www.w3.org/2000/svg" xmlns:xlink="http://www.w3.org/1999/xlink" x="0px" y="0px"
	 viewBox="0 0 425.4 265.1" style="enable-background:new 0 0 425.4 265.1;" xml:space="preserve">
<style type="text/css">
	.st0{fill:#966834;}
	.st1{fill:#BF8346;}
	.st2{fill:#B5753E;}
	.st3{fill:#CA8C50;}
	.st4{fill:#BE7343;}
	.st5{fill:#C37E44;}
	.st6{opacity:0.3;fill:#FFFFFF;}
	.st7{fill:#FFFFFF;}
</style>
<rect x="0" y="0" class="st0" width="425.4" height="265.1"/>
<g>
	<g>
		<rect x="4.5" y="7.2" class="st1" width="416.5" height="249.1"/>
		<rect x="4.5" y="7.2" class="st2" width="75.6" height="8.5"/>
		<rect x="154.5" y="7.2" class="st2" width="75.6" height="8.5"/>
		<rect x="79.8" y="7.2" class="st3" width="75.6" height="8.5"/>
		<rect x="4.5" y="23.8" class="st2" width="35" height="8.5"/>
		<rect x="22.7" y="15.7" class="st4" width="75.6" height="8.5"/>
		<rect x="173.3" y="15.7" class="st4" width="75.6" height="8.5"/>
		<rect x="97.4" y="15.7" class="st5" width="75.6" height="8.5"/>
		<rect x="39.9" y="23.8" class="st5" width="75.6" height="8.5"/>
		<rect x="115" y="23.8" class="st4" width="75.6" height="8.5"/>
		<rect x="230" y="7.2" class="st2" width="75.6" height="8.5"/>
		<rect x="380.1" y="7.2" class="st2" width="40.9" height="8.5"/>
		<rect x="305.3" y="7.2" class="st3" width="75.6" height="8.5"/>
		<rect x="190.8" y="23.8" class="st5" width="74.2" height="8.5"/>
		<rect x="248.2" y="15.7" class="st4" width="75.6" height="8.5"/>
		<rect x="398.9" y="15.7" class="st4" width="22.1" height="8.5"/>
		<rect x="322.9" y="15.7" class="st5" width="75.6" height="8.5"/>
		<rect x="265.5" y="23.8" class="st2" width="75.6" height="8.5"/>
		<rect x="340.5" y="23.8" class="st4" width="75.6" height="8.5"/>
		<rect x="345.3" y="48.4" class="st2" width="75.6" height="8.5"/>
		<rect x="195.3" y="48.4" class="st2" width="75.6" height="8.5"/>
		<rect x="270" y="48.4" class="st3" width="75.6" height="8.5"/>
		<rect x="386" y="31.9" class="st2" width="35" height="8.5"/>
		<rect x="327.1" y="39.9" class="st4" width="75.6" height="8.5"/>
		<rect x="176.5" y="39.9" class="st4" width="75.6" height="8.5"/>
		<rect x="252.4" y="39.9" class="st5" width="75.6" height="8.5"/>
		<rect x="309.9" y="31.9" class="st5" width="75.6" height="8.5"/>
		<rect x="234.8" y="31.9" class="st4" width="75.6" height="8.5"/>
		<rect x="119.8" y="48.4" class="st5" width="75.6" height="8.5"/>
		<rect x="4.5" y="48.4" class="st2" width="40.9" height="8.5"/>
		<rect x="44.5" y="48.4" class="st3" width="75.6" height="8.5"/>
		<rect x="160.4" y="31.9" class="st3" width="74.2" height="8.5"/>
		<rect x="101.6" y="39.9" class="st4" width="75.6" height="8.5"/>
		<rect x="26.9" y="39.9" class="st5" width="75.6" height="8.5"/>
		<rect x="84.3" y="31.9" class="st2" width="75.6" height="8.5"/>
		<rect x="9.3" y="31.9" class="st4" width="75.6" height="8.5"/>
		<rect x="4.5" y="57.4" class="st2" width="75.6" height="8.5"/>
		<rect x="154.5" y="57.4" class="st2" width="75.6" height="8.5"/>
		<rect x="79.8" y="57.4" class="st3" width="75.6" height="8.5"/>
		<rect x="4.5" y="74" class="st2" width="35" height="8.5"/>
		<rect x="22.7" y="65.9" class="st4" width="75.6" height="8.5"/>
		<rect x="173.3" y="65.9" class="st4" width="75.6" height="8.5"/>
		<rect x="97.4" y="65.9" class="st5" width="75.6" height="8.5"/>
		<rect x="39.9" y="74" class="st5" width="75.6" height="8.5"/>
		<rect x="115" y="74" class="st4" width="75.6" height="8.5"/>
		<rect x="230" y="57.4" class="st2" width="75.6" height="8.5"/>
		<rect x="380.1" y="57.4" class="st2" width="40.9" height="8.5"/>
		<rect x="305.3" y="57.4" class="st3" width="75.6" height="8.5"/>
		<rect x="190.8" y="74" class="st5" width="74.2" height="8.5"/>
		<rect x="248.2" y="65.9" class="st4" width="75.6" height="8.5"/>
		<rect x="398.9" y="65.9" class="st4" width="22.1" height="8.5"/>
		<rect x="322.9" y="65.9" class="st5" width="75.6" height="8.5"/>
		<rect x="265.5" y="74" class="st2" width="75.6" height="8.5"/>
		<rect x="340.5" y="74" class="st4" width="75.6" height="8.5"/>
		<rect x="345.3" y="98.7" class="st2" width="75.6" height="8.5"/>
		<rect x="195.3" y="98.7" class="st2" width="75.6" height="8.5"/>
		<rect x="270" y="98.7" class="st3" width="75.6" height="8.5"/>
		<rect x="386" y="82.1" class="st2" width="35" height="8.5"/>
		<rect x="327.1" y="90.2" class="st4" width="75.6" height="8.5"/>
		<rect x="176.5" y="90.2" class="st4" width="75.6" height="8.5"/>
		<rect x="252.4" y="90.2" class="st5" width="75.6" height="8.5"/>
		<rect x="309.9" y="82.1" class="st5" width="75.6" height="8.5"/>
		<rect x="234.8" y="82.1" class="st4" width="75.6" height="8.5"/>
		<rect x="119.8" y="98.7" class="st5" width="75.6" height="8.5"/>
		<rect x="4.5" y="98.7" class="st2" width="40.9" height="8.5"/>
		<rect x="44.5" y="98.7" class="st3" width="75.6" height="8.5"/>
		<rect x="160.4" y="82.1" class="st3" width="74.2" height="8.5"/>
		<rect x="101.6" y="90.2" class="st4" width="75.6" height="8.5"/>
		<rect x="26.9" y="90.2" class="st5" width="75.6" height="8.5"/>
		<rect x="84.3" y="82.1" class="st2" width="75.6" height="8.5"/>
		<rect x="9.3" y="82.1" class="st4" width="75.6" height="8.5"/>
		<rect x="4.5" y="107.7" class="st2" width="75.6" height="8.5"/>
		<rect x="154.5" y="107.7" class="st2" width="75.6" height="8.5"/>
		<rect x="79.8" y="107.7" class="st3" width="75.6" height="8.5"/>
		<rect x="4.5" y="124.3" class="st2" width="35" height="8.5"/>
		<rect x="22.7" y="116.2" class="st4" width="75.6" height="8.5"/>
		<rect x="173.3" y="116.2" class="st4" width="75.6" height="8.5"/>
		<rect x="97.4" y="116.2" class="st5" width="75.6" height="8.5"/>
		<rect x="39.9" y="124.3" class="st5" width="75.6" height="8.5"/>
		<rect x="115" y="124.3" class="st4" width="75.6" height="8.5"/>
		<rect x="230" y="107.7" class="st2" width="75.6" height="8.5"/>
		<rect x="380.1" y="107.7" class="st2" width="40.9" height="8.5"/>
		<rect x="305.3" y="107.7" class="st3" width="75.6" height="8.5"/>
		<rect x="190.8" y="124.3" class="st5" width="74.2" height="8.5"/>
		<rect x="248.2" y="116.2" class="st4" width="75.6" height="8.5"/>
		<rect x="398.9" y="116.2" class="st4" width="22.1" height="8.5"/>
		<rect x="322.9" y="116.2" class="st5" width="75.6" height="8.5"/>
		<rect x="265.5" y="124.3" class="st2" width="75.6" height="8.5"/>
		<rect x="340.5" y="124.3" class="st4" width="75.6" height="8.5"/>
		<rect x="345.3" y="148.9" class="st2" width="75.6" height="8.5"/>
		<rect x="195.3" y="148.9" class="st2" width="75.6" height="8.5"/>
		<rect x="270" y="148.9" class="st3" width="75.6" height="8.5"/>
		<rect x="386" y="132.3" class="st2" width="35" height="8.5"/>
		<rect x="327.1" y="140.4" class="st4" width="75.6" height="8.5"/>
		<rect x="176.5" y="140.4" class="st4" width="75.6" height="8.5"/>
		<rect x="252.4" y="140.4" class="st5" width="75.6" height="8.5"/>
		<rect x="309.9" y="132.3" class="st5" width="75.6" height="8.5"/>
		<rect x="234.8" y="132.3" class="st4" width="75.6" height="8.5"/>
		<rect x="119.8" y="148.9" class="st5" width="75.6" height="8.5"/>
		<rect x="4.5" y="148.9" class="st2" width="40.9" height="8.5"/>
		<rect x="44.5" y="148.9" class="st3" width="75.6" height="8.5"/>
		<rect x="160.4" y="132.3" class="st3" width="74.2" height="8.5"/>
		<rect x="101.6" y="140.4" class="st4" width="75.6" height="8.5"/>
		<rect x="26.9" y="140.4" class="st5" width="75.6" height="8.5"/>
		<rect x="84.3" y="132.3" class="st2" width="75.6" height="8.5"/>
		<rect x="9.3" y="132.3" class="st4" width="75.6" height="8.5"/>
		<rect x="4.5" y="157.9" class="st2" width="75.6" height="8.5"/>
		<rect x="154.5" y="157.9" class="st2" width="75.6" height="8.5"/>
		<rect x="79.8" y="157.9" class="st3" width="75.6" height="8.5"/>
		<rect x="4.5" y="174.5" class="st2" width="35" height="8.5"/>
		<rect x="22.7" y="166.4" class="st4" width="75.6" height="8.5"/>
		<rect x="173.3" y="166.4" class="st4" width="75.6" height="8.5"/>
		<rect x="97.4" y="166.4" class="st5" width="75.6" height="8.5"/>
		<rect x="39.9" y="174.5" class="st5" width="75.6" height="8.5"/>
		<rect x="115" y="174.5" class="st4" width="75.6" height="8.5"/>
		<rect x="230" y="157.9" class="st2" width="75.6" height="8.5"/>
		<rect x="380.1" y="157.9" class="st2" width="40.9" height="8.5"/>
		<rect x="305.3" y="157.9" class="st3" width="75.6" height="8.5"/>
		<rect x="190.8" y="174.5" class="st5" width="74.2" height="8.5"/>
		<rect x="248.2" y="166.4" class="st4" width="75.6" height="8.5"/>
		<rect x="398.9" y="166.4" class="st4" width="22.1" height="8.5"/>
		<rect x="322.9" y="166.4" class="st5" width="75.6" height="8.5"/>
		<rect x="265.5" y="174.5" class="st2" width="75.6" height="8.5"/>
		<rect x="340.5" y="174.5" class="st4" width="75.6" height="8.5"/>
		<rect x="345.3" y="199.2" class="st2" width="75.6" height="8.5"/>
		<rect x="195.3" y="199.2" class="st2" width="75.6" height="8.5"/>
		<rect x="270" y="199.2" class="st3" width="75.6" height="8.5"/>
		<rect x="386" y="182.6" class="st2" width="35" height="8.5"/>
		<rect x="327.1" y="190.7" class="st4" width="75.6" height="8.5"/>
		<rect x="176.5" y="190.7" class="st4" width="75.6" height="8.5"/>
		<rect x="252.4" y="190.7" class="st5" width="75.6" height="8.5"/>
		<rect x="309.9" y="182.6" class="st5" width="75.6" height="8.5"/>
		<rect x="234.8" y="182.6" class="st4" width="75.6" height="8.5"/>
		<rect x="119.8" y="199.2" class="st5" width="75.6" height="8.5"/>
		<rect x="4.5" y="199.2" class="st2" width="40.9" height="8.5"/>
		<rect x="44.5" y="199.2" class="st3" width="75.6" height="8.5"/>
		<rect x="160.4" y="182.6" class="st3" width="74.2" height="8.5"/>
		<rect x="101.6" y="190.7" class="st4" width="75.6" height="8.5"/>
		<rect x="26.9" y="190.7" class="st5" width="75.6" height="8.5"/>
		<rect x="84.3" y="182.6" class="st2" width="75.6" height="8.5"/>
		<rect x="9.3" y="182.6" class="st4" width="75.6" height="8.5"/>
		<rect x="4.5" y="208.1" class="st2" width="75.6" height="8.5"/>
		<rect x="154.5" y="208.1" class="st2" width="75.6" height="8.5"/>
		<rect x="79.8" y="208.1" class="st3" width="75.6" height="8.5"/>
		<rect x="4.5" y="224.7" class="st2" width="35" height="8.5"/>
		<rect x="22.7" y="216.7" class="st4" width="75.6" height="8.5"/>
		<rect x="173.3" y="216.7" class="st4" width="75.6" height="8.5"/>
		<rect x="97.4" y="216.7" class="st5" width="75.6" height="8.5"/>
		<rect x="39.9" y="224.7" class="st5" width="75.6" height="8.5"/>
		<rect x="115" y="224.7" class="st4" width="75.6" height="8.5"/>
		<rect x="230" y="208.1" class="st2" width="75.6" height="8.5"/>
		<rect x="380.1" y="208.1" class="st2" width="40.9" height="8.5"/>
		<rect x="305.3" y="208.1" class="st3" width="75.6" height="8.5"/>
		<rect x="190.8" y="224.7" class="st5" width="74.2" height="8.5"/>
		<rect x="248.2" y="216.7" class="st4" width="75.6" height="8.5"/>
		<rect x="398.9" y="216.7" class="st4" width="22.1" height="8.5"/>
		<rect x="322.9" y="216.7" class="st5" width="75.6" height="8.5"/>
		<rect x="265.5" y="224.7" class="st2" width="75.6" height="8.5"/>
		<rect x="340.5" y="224.7" class="st4" width="75.6" height="8.5"/>
		<rect x="345.3" y="249.4" class="st2" width="75.6" height="8.5"/>
		<rect x="195.3" y="249.4" class="st2" width="75.6" height="8.5"/>
		<rect x="270" y="249.4" class="st3" width="75.6" height="8.5"/>
		<rect x="386" y="232.8" class="st2" width="35" height="8.5"/>
		<rect x="327.1" y="240.9" class="st4" width="75.6" height="8.5"/>
		<rect x="176.5" y="240.9" class="st4" width="75.6" height="8.5"/>
		<rect x="252.4" y="240.9" class="st5" width="75.6" height="8.5"/>
		<rect x="309.9" y="232.8" class="st5" width="75.6" height="8.5"/>
		<rect x="234.8" y="232.8" class="st4" width="75.6" height="8.5"/>
		<rect x="119.8" y="249.4" class="st5" width="75.6" height="8.5"/>
		<rect x="4.5" y="249.4" class="st2" width="40.9" height="8.5"/>
		<rect x="44.5" y="249.4" class="st3" width="75.6" height="8.5"/>
		<rect x="160.4" y="232.8" class="st3" width="74.2" height="8.5"/>
		<rect x="101.6" y="240.9" class="st4" width="75.6" height="8.5"/>
		<rect x="26.9" y="240.9" class="st5" width="75.6" height="8.5"/>
		<rect x="84.3" y="232.8" class="st2" width="75.6" height="8.5"/>
		<rect x="9.3" y="232.8" class="st4" width="75.6" height="8.5"/>
	</g>
	<path class="st6" d="M18.5,23.3v81h99.1v56.5H18.5v81.1h388.4V23.3H18.5z M406.8,160.8h-99.1v-56.5h99.1V160.8z"/>
	<g>
		<path class="st7" d="M17.6,22.4v81v58.3v81.1h390.2V22.4H17.6z M308.8,105.2c0.7,0,1.4,0,2.1,0.1l0-0.1h4.4l-0.2,0.7
			c1.4,0.3,2.8,0.8,4.1,1.3l0.7-1.7c-0.4-0.1-0.7-0.3-1.1-0.4h87v54.7h-87c0.4-0.1,0.7-0.3,1.1-0.4l-0.7-1.7c-1.3,0.5-2.7,1-4.1,1.3
			l0.2,0.7h-4.5l0-0.1c-0.7,0.1-1.4,0.1-2.1,0.1c-0.1,0-0.2,0-0.3,0v-54.7C308.6,105.2,308.7,105.2,308.8,105.2z M306.7,159.8
			c-12.3-0.9-22.4-10.1-24.8-21.9c-0.1-1.8-0.2-3.5-0.2-5.3c0-1.8,0.1-3.6,0.2-5.3c2.4-11.9,12.4-21,24.8-21.9V159.8z M306.7,161.6
			L306.7,161.6l7.5,0.1v3.8h1.8v-3.8h11v3.8h1.8v-3.8h11v3.8h1.8v-3.8h10.1v3.8h3.6v-3.8H406v46.5h-48.6c-37.1,0-68-26.8-74.4-62.1
			C287.6,154.8,296.4,160.9,306.7,161.6z M355.3,103.4V100h-3.6v3.4h-10.1V100h-1.8v3.4h-11V100h-1.8v3.4h-11V100h-1.8v3.4h-7.5v0.1
			c-10.3,0.7-19.2,6.8-23.7,15.5c6.4-35.3,37.3-62.1,74.4-62.1H406v46.5H355.3z M211.8,182.2c-26.9-0.5-48.7-22.6-48.7-49.6
			c0-27.1,21.8-49.1,48.7-49.6V182.2z M213.7,82.9c26.9,0.5,48.7,22.6,48.7,49.6c0,27.1-21.8,49.1-48.7,49.6V82.9z M19.4,56.9h48.5
			c37.1,0,68,26.8,74.4,62.1c-4.6-8.7-13.4-14.8-23.7-15.5v-0.1H111V100h-1.8v3.4h-11V100h-1.8v3.4h-11V100h-1.8v3.4H73.5V100H70
			v3.4H19.4V56.9z M116.5,159.9c-0.7,0-1.4,0-2.1-0.1l0,0.1h-4.5l0.2-0.7c-1.4-0.3-2.8-0.8-4.1-1.3l-0.7,1.7
			c0.4,0.2,0.7,0.3,1.1,0.4H19.4v-54.7h87.1c-0.4,0.1-0.7,0.2-1.1,0.4l0.7,1.7c1.3-0.5,2.7-1,4.1-1.3l-0.2-0.7h4.4l0,0.1
			c0.7-0.1,1.4-0.1,2.1-0.1c0.1,0,0.2,0,0.3,0v54.7C116.7,159.9,116.6,159.9,116.5,159.9z M118.6,105.3
			c12.3,0.9,22.4,10.1,24.8,21.9c0.1,1.8,0.2,3.5,0.2,5.3c0,1.8-0.1,3.6-0.2,5.3c-2.4,11.9-12.4,21-24.8,21.9V105.3z M70,161.7v3.8
			h3.6v-3.8h10.1v3.8h1.8v-3.8h11v3.8h1.8v-3.8h11v3.8h1.8v-3.8h7.5v-0.1c10.3-0.7,19.2-6.8,23.7-15.5
			c-6.4,35.3-37.3,62.1-74.4,62.1H19.4v-46.5H70z M19.4,210h48.5c40.8,0,74.3-31.8,77.2-71.9c0.3-1.8,0.5-3.7,0.5-5.6
			c0-1.9-0.2-3.8-0.5-5.6c-2.9-40.1-36.4-71.9-77.2-71.9H19.4v-31h192.4v57c-27.9,0.5-50.5,23.4-50.5,51.4c0,28,22.6,50.9,50.5,51.4
			v57H19.4V210z M213.7,241v-57c27.9-0.5,50.5-23.4,50.5-51.4c0-28-22.6-50.9-50.5-51.4v-57H406v31h-48.6
			c-40.8,0-74.3,31.8-77.2,71.9c-0.3,1.8-0.5,3.7-0.5,5.6c0,1.9,0.2,3.8,0.5,5.6c2.9,40.1,36.4,71.9,77.2,71.9H406v31H213.7z"/>
		<path class="st7" d="M333.7,117.3c-0.8-1.3-1.7-2.5-2.7-3.7l-1.4,1.2c0.9,1.1,1.8,2.3,2.5,3.5L333.7,117.3z"/>
		<path class="st7" d="M329.6,150.3l1.4,1.2c1-1.2,1.9-2.4,2.7-3.7l-1.5-0.9C331.4,148.1,330.5,149.2,329.6,150.3z"/>
		<path class="st7" d="M337.2,125.7c-0.4-1.5-0.8-2.9-1.4-4.4l-1.7,0.7c0.6,1.3,1,2.7,1.3,4.1L337.2,125.7z"/>
		<path class="st7" d="M334.1,143l1.7,0.7c0.6-1.4,1.1-2.9,1.4-4.4l-1.7-0.4C335.1,140.3,334.6,141.7,334.1,143z"/>
		<path class="st7" d="M336.2,132.6c0,0.7,0,1.4-0.1,2.1l1.8,0.1c0.1-0.7,0.1-1.5,0.1-2.3c0-0.8,0-1.5-0.1-2.3l-1.8,0.1
			C336.1,131.1,336.2,131.8,336.2,132.6z"/>
		<path class="st7" d="M327.7,110.4c-1.2-1-2.4-1.9-3.7-2.7l-0.9,1.5c1.2,0.7,2.4,1.6,3.5,2.5L327.7,110.4z"/>
		<path class="st7" d="M323.1,155.9l0.9,1.5c1.3-0.8,2.5-1.7,3.7-2.7l-1.2-1.4C325.5,154.3,324.3,155.1,323.1,155.9z"/>
		<path class="st7" d="M91.6,147.8c0.8,1.3,1.7,2.5,2.7,3.7l1.4-1.2c-0.9-1.1-1.8-2.3-2.5-3.5L91.6,147.8z"/>
		<path class="st7" d="M88.1,125.7l1.7,0.4c0.3-1.4,0.8-2.8,1.3-4.1l-1.7-0.7C89,122.8,88.5,124.2,88.1,125.7z"/>
		<path class="st7" d="M88.1,139.3c0.4,1.5,0.8,3,1.4,4.4l1.7-0.7c-0.5-1.3-1-2.7-1.3-4.1L88.1,139.3z"/>
		<path class="st7" d="M97.6,154.7c1.2,1,2.4,1.9,3.7,2.7l0.9-1.5c-1.2-0.8-2.4-1.6-3.5-2.5L97.6,154.7z"/>
		<path class="st7" d="M97.6,110.4l1.2,1.4c1.1-0.9,2.3-1.8,3.5-2.5l-0.9-1.5C100,108.5,98.8,109.4,97.6,110.4z"/>
		<path class="st7" d="M89.1,132.6c0-0.7,0-1.5,0.1-2.2l-1.8-0.1c-0.1,0.8-0.1,1.5-0.1,2.3c0,0.8,0,1.5,0.1,2.3l1.8-0.1
			C89.2,134,89.1,133.3,89.1,132.6z"/>
		<path class="st7" d="M91.7,117.3l1.5,0.9c0.8-1.2,1.6-2.4,2.5-3.5l-1.4-1.2C93.4,114.7,92.5,116,91.7,117.3z"/>
	</g>
</g>
</svg>
