<?xml version="1.0" encoding="UTF-8" standalone="no"?>
<!-- Created with Inkscape (http://www.inkscape.org/) -->
<svg
   xmlns:dc="http://purl.org/dc/elements/1.1/"
   xmlns:cc="http://web.resource.org/cc/"
   xmlns:rdf="http://www.w3.org/1999/02/22-rdf-syntax-ns#"
   xmlns:svg="http://www.w3.org/2000/svg"
   xmlns="http://www.w3.org/2000/svg"
   xmlns:sodipodi="http://sodipodi.sourceforge.net/DTD/sodipodi-0.dtd"
   xmlns:inkscape="http://www.inkscape.org/namespaces/inkscape"
   height="1060"
   width="700"
   id="svg2"
   sodipodi:version="0.32"
   inkscape:version="0.44"
   version="1.0"
   sodipodi:docbase="d:\"
   sodipodi:docname="Football_field.svg">
  <defs
     id="defs4" />
  <sodipodi:namedview
     id="base"
     pagecolor="#ffffff"
     bordercolor="#666666"
     borderopacity="1.0"
     inkscape:pageopacity="0.0"
     inkscape:pageshadow="2"
     inkscape:cx="350"
     inkscape:cy="514.82112"
     inkscape:zoom="0.73867925"
     inkscape:document-units="px"
     inkscape:current-layer="layer1"
     width="700px"
     height="1060px"
     inkscape:showpageshadow="false"
     inkscape:window-width="1280"
     inkscape:window-height="977"
     inkscape:window-x="-4"
     inkscape:window-y="-4" />
  <metadata
     id="metadata7">
    <rdf:RDF>
      <cc:Work
         rdf:about="">
        <dc:format>image/svg+xml</dc:format>
        <dc:type
           rdf:resource="http://purl.org/dc/dcmitype/StillImage" />
      </cc:Work>
    </rdf:RDF>
  </metadata>
  <g
     inkscape:groupmode="layer"
     inkscape:label="Warstwa 1"
     id="layer1">
    <rect
       style="fill:#00a000;fill-opacity:1;fill-rule:evenodd;stroke:none;stroke-width:10;stroke-linecap:butt;stroke-linejoin:miter;stroke-miterlimit:4;stroke-dasharray:none;stroke-opacity:1"
       id="rect1872"
       width="700"
       height="1060"
       x="0"
       y="0" />
    <g
       id="g3772">
      <path
         sodipodi:nodetypes="cccccc"
         id="path3770"
         d="M 423.45109,869.14709 L 425.52704,869.14709 C 408.75686,845.50978 381.16316,830.08458 349.99579,830.0846 L 349.99579,830.08459 C 318.82875,830.0846 291.26602,845.5102 274.49579,869.1471 L 276.54193,869.1471"
         style="fill:none;fill-opacity:1;fill-rule:evenodd;stroke:white;stroke-width:5.07433605;stroke-linecap:butt;stroke-linejoin:miter;stroke-miterlimit:4;stroke-dasharray:none;stroke-opacity:1" />
      <path
         id="path3747"
         d="M 152.93677,1029.99 L 150.468,1029.99 L 150.468,869.12604 L 150.468,869.12604 L 549.53198,869.12604 L 549.53198,1029.99 L 547.00072,1029.99"
         style="fill:none;fill-opacity:1;fill-rule:evenodd;stroke:white;stroke-width:5;stroke-linecap:butt;stroke-linejoin:miter;stroke-miterlimit:4;stroke-opacity:1" />
      <path
         transform="matrix(0.887251,0,0,0.955501,-23.57158,114.8921)"
         d="M 426.67924 845.37323 A 5.635386 5.2328587 0 1 1  415.40847,845.37323 A 5.635386 5.2328587 0 1 1  426.67924 845.37323 z"
         sodipodi:ry="5.2328587"
         sodipodi:rx="5.635386"
         sodipodi:cy="845.37323"
         sodipodi:cx="421.04385"
         id="path10770"
         style="fill:white;fill-opacity:1;fill-rule:evenodd;stroke:none;stroke-width:5;stroke-linecap:butt;stroke-linejoin:miter;stroke-miterlimit:4;stroke-dasharray:none;stroke-opacity:1"
         sodipodi:type="arc" />
      <path
         transform="matrix(1.064701,0,0,1.146601,-98.28581,-439.3058)"
         d="M 426.67924 845.37323 A 5.635386 5.2328587 0 1 1  415.40847,845.37323 A 5.635386 5.2328587 0 1 1  426.67924 845.37323 z"
         sodipodi:ry="5.2328587"
         sodipodi:rx="5.635386"
         sodipodi:cy="845.37323"
         sodipodi:cx="421.04385"
         id="path11672"
         style="fill:white;fill-opacity:1;fill-rule:evenodd;stroke:none;stroke-width:5;stroke-linecap:butt;stroke-linejoin:miter;stroke-miterlimit:4;stroke-dasharray:none;stroke-opacity:1"
         sodipodi:type="arc" />
      <path
         transform="matrix(0.887251,0,0,0.955501,-23.57158,-670.1079)"
         d="M 426.67924 845.37323 A 5.635386 5.2328587 0 1 1  415.40847,845.37323 A 5.635386 5.2328587 0 1 1  426.67924 845.37323 z"
         sodipodi:ry="5.2328587"
         sodipodi:rx="5.635386"
         sodipodi:cy="845.37323"
         sodipodi:cx="421.04385"
         id="path11674"
         style="fill:white;fill-opacity:1;fill-rule:evenodd;stroke:none;stroke-width:5;stroke-linecap:butt;stroke-linejoin:miter;stroke-miterlimit:4;stroke-dasharray:none;stroke-opacity:1"
         sodipodi:type="arc" />
      <path
         id="path1911"
         d="M 30.569095,1015.9792 C 37.529477,1015.8017 43.318982,1021.4474 43.492098,1028.5811 C 43.494833,1028.6938 43.495992,1028.7892 43.495997,1028.902"
         style="fill:none;fill-opacity:1;fill-rule:evenodd;stroke:white;stroke-width:5;stroke-linecap:butt;stroke-linejoin:miter;stroke-miterlimit:4;stroke-opacity:1" />
      <path
         id="path3742"
         d="M 262.445,1030 L 259.94522,1030 L 259.94522,978.09045 L 259.94522,978.09045 L 440.05478,978.09045 L 440.05478,1030 L 437.55499,1030"
         style="fill:none;fill-opacity:1;fill-rule:evenodd;stroke:white;stroke-width:5;stroke-linecap:butt;stroke-linejoin:miter;stroke-miterlimit:4;stroke-opacity:1" />
      <path
         id="path1905"
         d="M 442.53661,530.00004 C 442.53661,581.08025 401.08021,622.53666 350,622.53666 C 298.9198,622.53666 257.46341,581.08025 257.46341,530.00004 C 257.46341,478.91984 298.9198,437.46342 350,437.46342 C 401.08021,437.46342 442.53661,478.91984 442.53661,530.00004 z "
         style="fill:none;fill-opacity:1;fill-rule:evenodd;stroke:white;stroke-width:5;stroke-linecap:butt;stroke-linejoin:miter;stroke-miterlimit:4;stroke-opacity:1" />
      <path
         id="path1903"
         d="M 30.35101,529.99999 C 669.64899,529.99999 669.64899,529.99999 669.64899,529.99999"
         style="fill:none;fill-opacity:1;fill-rule:evenodd;stroke:white;stroke-width:5;stroke-linecap:butt;stroke-linejoin:miter;stroke-miterlimit:4;stroke-opacity:1" />
      <path
         id="path2803"
         d="M 437.58625,30.010439 L 440.05478,30.010439 L 440.05478,81.92 L 259.94522,81.92 L 259.94522,30.010439 L 259.94522,30.010439 L 262.47625,30.010439"
         style="fill:none;fill-opacity:1;fill-rule:evenodd;stroke:white;stroke-width:5;stroke-linecap:butt;stroke-linejoin:miter;stroke-miterlimit:4;stroke-opacity:1" />
      <path
         id="path1899"
         d="M 30.000002,29.999991 L 670,29.999991 L 670,1030 L 30.000002,1030 L 30.000002,29.999991 z "
         style="fill:none;fill-opacity:1;fill-rule:evenodd;stroke:white;stroke-width:5;stroke-linecap:butt;stroke-linejoin:miter;stroke-miterlimit:4;stroke-opacity:1" />
      <path
         id="path2817"
         d="M 547.00071,30.007021 L 549.53198,30.007021 L 549.53198,190.871 L 150.468,190.871 L 150.468,30.007021 L 150.468,30.007021 L 152.96801,30.007021"
         style="fill:none;fill-opacity:1;fill-rule:evenodd;stroke:white;stroke-width:5;stroke-linecap:butt;stroke-linejoin:miter;stroke-miterlimit:4;stroke-opacity:1" />
      <path
         sodipodi:nodetypes="cccscc"
         id="path2832"
         d="M 276.28681,190.92095 L 274.24579,190.93251 L 274.24579,190.93251 C 290.99027,214.77544 318.66859,230.37 349.99579,230.37001 C 381.32461,230.37001 409.03282,214.77753 425.77704,190.93251 L 423.73859,190.93251"
         style="fill:none;fill-opacity:1;fill-rule:evenodd;stroke:white;stroke-width:5;stroke-linecap:butt;stroke-linejoin:miter;stroke-miterlimit:4;stroke-opacity:1" />
      <path
         id="path1893"
         d="M 668.56428,43.790848 C 661.6039,43.968275 655.8144,38.32261 655.64128,31.188914 C 655.63855,31.076176 655.63739,30.980805 655.63738,30.868029"
         style="fill:none;fill-opacity:1;fill-rule:evenodd;stroke:white;stroke-width:5;stroke-linecap:butt;stroke-linejoin:miter;stroke-miterlimit:4;stroke-opacity:1" />
      <path
         id="path1891"
         d="M 44.297238,30.990225 C 44.474665,37.950607 38.829,43.740112 31.695304,43.913228 C 31.582566,43.915963 31.487195,43.917122 31.374419,43.917127"
         style="fill:none;fill-opacity:1;fill-rule:evenodd;stroke:white;stroke-width:5;stroke-linecap:butt;stroke-linejoin:miter;stroke-miterlimit:4;stroke-opacity:1" />
      <path
         id="path13489"
         d="M 655.29596,1028.4995 C 655.11853,1021.5391 660.7642,1015.7496 667.8979,1015.5765 C 668.01063,1015.5737 668.10601,1015.5726 668.21878,1015.5726"
         style="fill:none;fill-opacity:1;fill-rule:evenodd;stroke:white;stroke-width:5;stroke-linecap:butt;stroke-linejoin:miter;stroke-miterlimit:4;stroke-opacity:1" />
    </g>
  </g>
</svg>
