<?xml version="1.0" encoding="iso-8859-1"?>
<!-- Generator: Adobe Illustrator 19.0.0, SVG Export Plug-In . SVG Version: 6.00 Build 0)  -->
<svg version="1.1" id="Capa_1" xmlns="http://www.w3.org/2000/svg" xmlns:xlink="http://www.w3.org/1999/xlink" x="0px" y="0px"
	 viewBox="0 0 511.985 511.985" style="enable-background:new 0 0 511.985 511.985;" xml:space="preserve">
<g>
	<g>
		<path d="M499.455,230.673l-75.616-16.928l-222.976,171.36l-22.816-22.816l228.672-175.712l-6.848-60.384
			c-0.832-7.424-6.688-13.28-14.08-14.08l-64.544-7.328l-171.84,228.896l-22.816-22.848L300.223,79.505l-7.36-65.312
			c-0.448-4.384-2.784-8.384-6.304-11.008c-3.52-2.624-8-3.712-12.352-2.944l-90.496,16c-5.792,1.024-10.528,5.088-12.416,10.656
			L81.983,294.193l-26.592,26.592l135.744,135.744l26.56-26.56l267.296-89.312c5.44-1.824,9.504-6.4,10.624-12.032l16-79.168
			C513.375,240.945,507.967,232.593,499.455,230.673z" fill="white"/>
	</g>
</g>
<g>
	<g>
		<path d="M32.767,343.441l-4.672,4.672c-37.408,37.44-37.408,98.304,0,135.744c18.112,18.144,42.24,28.128,67.872,28.128
			s49.76-10.016,67.872-28.128l4.672-4.672L32.767,343.441z" fill="white"/>
	</g>
</g>
<g>
</g>
<g>
</g>
<g>
</g>
<g>
</g>
<g>
</g>
<g>
</g>
<g>
</g>
<g>
</g>
<g>
</g>
<g>
</g>
<g>
</g>
<g>
</g>
<g>
</g>
<g>
</g>
<g>
</g>
</svg>
