<?xml version="1.0" encoding="iso-8859-1"?>
<!-- Generator: Adobe Illustrator 19.0.0, SVG Export Plug-In . SVG Version: 6.00 Build 0)  -->
<svg version="1.1" id="Capa_1" xmlns="http://www.w3.org/2000/svg" xmlns:xlink="http://www.w3.org/1999/xlink" x="0px" y="0px"
	 viewBox="0 0 512 512" style="enable-background:new 0 0 512 512;" xml:space="preserve">
<g>
	<g>
		<path d="M256,0C114.848,0,0,114.848,0,256s114.848,256,256,256s256-114.848,256-256S397.152,0,256,0z M272.256,83.168
			l65.824-35.392c36.448,14.432,68.256,38.08,92.448,68.16l-15.68,72.384l-50.208,24.608l-92.384-67.296V83.168z M174.464,47.584
			l65.824,35.52v62.528l-92.32,67.296l-50.464-24.64l-15.68-72.832C106.08,85.44,137.952,61.92,174.464,47.584z M71.36,382.528
			c-20.896-30.4-34.496-66.144-38.24-104.768l54.176-58.848l49.408,24.16l37.216,105.696l-31.456,37.696L71.36,382.528z
			 M313.056,472.352C294.784,477.184,275.744,480,256,480c-23.872,0-46.848-3.84-68.448-10.784l-20.128-62.656L199.52,368h113.088
			l31.52,37.312L313.056,472.352z M369.088,385.376l-30.944-36.64l37.728-105.664l49.184-24.096l53.856,58.816
			c-3.232,33.312-13.952,64.384-30.24,91.872L369.088,385.376z" fill="white"/>
	</g>
</g>
<g>
</g>
<g>
</g>
<g>
</g>
<g>
</g>
<g>
</g>
<g>
</g>
<g>
</g>
<g>
</g>
<g>
</g>
<g>
</g>
<g>
</g>
<g>
</g>
<g>
</g>
<g>
</g>
<g>
</g>
</svg>
